#N canvas 0 23 450 300 12;
#X obj 22 10 inlet i;
#X obj 22 140 route 0 1 2 3;
#X obj 22 250 outlet;
#X obj 44 200 outlet;
#X obj 66 224 outlet;
#X obj 88 251 outlet;
#X obj 22 64 f;
#X obj 99 9 inlet bang;
#X connect 0 0 6 1;
#X connect 1 0 2 0;
#X connect 1 1 3 0;
#X connect 1 2 4 0;
#X connect 1 3 5 0;
#X connect 6 0 1 0;
#X connect 7 0 6 0;
