#N canvas 0 23 960 564 12;
#X obj 42 54 inlet~ audio;
#X obj 152 54 inlet time;
#X obj 247 54 inlet feedback;
#X obj 202 406 *~ 0.5, f 7;
#X obj 202 140 *~ 1;
#X obj 39 448 delwrite~ \$0-delbuffer 1000;
#X obj 202 361 delread4~ \$0-delbuffer;
#X obj 152 90 loadbang;
#X msg 152 109 1;
#X obj 402 445 outlet~ wet;
#X obj 57 153 throw~ \$0-dry;
#X obj 557 441 outlet~ dry;
#X obj 557 401 catch~ \$0-dry;
#X connect 0 0 5 0;
#X connect 0 0 10 0;
#X connect 1 0 4 1;
#X connect 2 0 3 1;
#X connect 3 0 5 0;
#X connect 4 0 6 0;
#X connect 6 0 3 0;
#X connect 6 0 9 0;
#X connect 7 0 8 0;
#X connect 8 0 4 0;
#X connect 12 0 11 0;
