#N canvas 960 23 960 1150 12;
#X msg 194 64 \; pd dsp \$1;
#X obj 194 34 tgl 30 0 empty empty empty 17 7 0 10 -203904 -1 -1 0
1;
#X obj 43 142 hsl 128 25 1 32 0 1 empty empty TIME -2 -16 0 24 -262130
-1 -261234 0 0;
#X obj 38 44 adc~;
#X obj 38 82 throw~ audio;
#X obj 40 218 s time;
#X obj 214 182 hradio 50 1 1 4 slot empty STEPS 80 -15 0 24 -204786
-1 -261234 2;
#X obj 208 956 sampler;
#X obj 214 143 loadbang;
#X obj 305 958 sampler;
#X obj 273 1158 *~ 1;
#X obj 273 1202 dac~;
#X obj 38 63 *~ 1;
#X obj 33 937 catch~ audio;
#X obj 40 171 i;
#X text 69 171 convert to int;
#X obj 398 957 sampler;
#X obj 514 957 sampler;
#X obj 43 280 hsl 128 25 0.01 10 1 1 empty empty LFO -2 -16 0 24 -262130
-1 -261234 5800 0;
#X floatatom 40 343 10 0 0 0 - - -;
#X floatatom 40 195 10 0 0 0 - - -;
#X obj 40 361 s lfo;
#X obj 258 730 r lfo;
#X obj 43 450 hsl 128 25 0 1 0 1 empty empty OFFSET -2 -16 0 24 -262130
-1 -261234 4400 1;
#X floatatom 40 475 10 0 0 0 - - -;
#X obj 40 493 s offset;
#X obj 297 730 r slot;
#X obj 29 729 r slot;
#X obj 138 730 r time;
#X obj 184 730 r slot;
#X obj 215 363 bng 150 250 50 0 rec empty REC 47 75 0 30 -258113 -204786
-262144;
#X obj 448 730 r slot, f 7;
#X obj 388 730 r offset;
#X obj 138 749 router4, f 13;
#X obj 258 749 router4, f 15;
#X obj 388 749 router4, f 16;
#X obj 29 748 bangrouter4;
#X obj 40 305 > 0.01;
#X obj 40 324 *;
#X obj 222 981 r s1;
#X obj 208 1000 *~ 0.5;
#X obj 305 1000 *~ 0.5;
#X obj 398 1000 *~ 0.5;
#X obj 514 1000 *~ 0.5;
#X obj 316 1158 r total;
#X obj 319 981 r s2;
#X obj 412 981 r s3;
#X obj 528 981 r s4;
#X obj 75 729 r rec;
#X obj 636 386 r lfo;
#X obj 636 410 print lfo;
#X obj 717 386 r slot;
#X obj 717 410 print slot;
#X obj 637 436 r time;
#X obj 638 460 print time;
#X obj 827 386 r rec;
#X obj 829 410 print rec;
#X obj 718 461 print offset;
#X obj 717 436 r offset;
#X text 686 345 DEBUG;
#X obj 642 517 r s1;
#X obj 642 541 print s1;
#X obj 722 517 r s2;
#X obj 722 541 print s2;
#X obj 642 577 r s3;
#X obj 642 601 print s3;
#X obj 722 577 r s4;
#X obj 722 601 print s4;
#X obj 615 197 vsl 20 128 0 1 0 0 s1 empty empty 0 -9 0 10 -204800
-1 -1 10160 1;
#X obj 665 197 vsl 20 128 0 1 0 0 s2 empty empty 0 -9 0 10 -204786
-1 -1 10160 1;
#X obj 715 197 vsl 20 128 0 1 0 0 s3 empty empty 0 -9 0 10 -261234
-1 -1 10160 1;
#X obj 765 197 vsl 20 128 0 1 0 0 s4 empty empty 0 -9 0 10 -262130
-1 -1 10160 1;
#X obj 665 51 loadbang;
#X msg 665 104 0.8;
#X text 808 186 VOICE MIXER;
#X floatatom 665 161 5 0 0 0 - - -;
#X msg 715 142 0.25;
#X msg 615 142 0.4;
#X obj 525 125 vsl 40 200 0 1 0 0 total empty TOTAL 0 -25 0 20 -262130
-1 -261234 15920 1;
#X obj 823 518 r total;
#X obj 823 542 print total;
#X obj 824 578 r clear;
#X obj 824 602 print clear;
#X obj 215 534 bng 75 250 50 0 clear empty clear 16 38 0 15 -261234
-204786 -262144;
#X obj 214 306 hradio 30 1 1 3 length empty LENGTH 0 -35 0 24 -232576
-1 -261234 0;
#X obj 598 730 r slot, f 7;
#X obj 538 749 router4, f 16;
#X obj 538 730 r length;
#X msg 214 163 0;
#X obj 640 636 r length;
#X obj 640 660 print l;
#N canvas 0 23 785 468 mobmu_sends 0;
#X obj 101 133 s lfo;
#N canvas 0 610 1280 564 mobmuplat 1;
#X obj 39 207 outlet offset;
#X obj 204 167 outlet slot;
#X obj 300 217 outlet time;
#X obj 385 217 outlet rec;
#X obj 469 217 outlet gains;
#X obj 39 -221 receive fromGUI;
#X obj 39 -190 list trim;
#X obj 385 -171 route /rec;
#X obj 204 -106 route /slots;
#X obj 300 -171 route /time;
#X obj 300 -123 i;
#X obj 204 -82 unpack f f f;
#X obj 385 -147 sel 1;
#X text 201 -53 NB! sends both on ON / OFF;
#X obj 39 -8 unpack f f;
#X obj 39 -36 route /xy;
#X obj 469 -171 route /gains;
#X obj 300 -147 + 1;
#X obj 39 -250 gui_wrapper;
#X text 132 -250 necessary to connect to Mobmuplat editor GUI;
#X obj 569 217 outlet total;
#X obj 569 -171 route /total;
#X obj 790 -171 route /clear;
#X obj 790 -146 sel 1;
#X obj 790 -121 s clear;
#X text 669 -205 clear is received as message in sampler;
#X obj 679 -171 route /length;
#X obj 679 217 outlet length;
#X obj 679 -116 unpack f f f;
#X text 691 -92 NB! sends both on ON / OFF;
#X obj 106 179 outlet lfo;
#X obj 106 54 *;
#X obj 106 105 exp;
#X obj 106 129 - 1;
#X obj 106 78 * 2.5;
#X obj 106 28 > 0.1;
#X obj 745 -12 route /pitch;
#X obj 745 106 outlet pitch;
#X obj 745 48 round_int;
#X obj 745 17 * 12;
#X obj 745 79 - 6;
#X obj 569 174 * 5;
#X obj 912 -11 route /feed;
#X obj 912 13 unpack f f;
#X obj 912 217 outlet dt;
#X obj 912 137 * 1000;
#X obj 979 187 outlet feedback;
#X connect 5 0 6 0;
#X connect 6 0 7 0;
#X connect 6 0 8 0;
#X connect 6 0 9 0;
#X connect 6 0 15 0;
#X connect 6 0 16 0;
#X connect 6 0 21 0;
#X connect 6 0 22 0;
#X connect 6 0 26 0;
#X connect 6 0 36 0;
#X connect 6 0 42 0;
#X connect 7 0 12 0;
#X connect 8 0 11 0;
#X connect 9 0 17 0;
#X connect 10 0 2 0;
#X connect 11 0 1 0;
#X connect 12 0 3 0;
#X connect 14 0 0 0;
#X connect 14 1 31 1;
#X connect 14 1 35 0;
#X connect 15 0 14 0;
#X connect 16 0 4 0;
#X connect 17 0 10 0;
#X connect 21 0 41 0;
#X connect 22 0 23 0;
#X connect 23 0 24 0;
#X connect 26 0 28 0;
#X connect 28 0 27 0;
#X connect 31 0 34 0;
#X connect 32 0 33 0;
#X connect 33 0 30 0;
#X connect 34 0 32 0;
#X connect 35 0 31 0;
#X connect 36 0 39 0;
#X connect 38 0 40 0;
#X connect 39 0 38 0;
#X connect 40 0 37 0;
#X connect 41 0 20 0;
#X connect 42 0 43 0;
#X connect 43 0 45 0;
#X connect 43 1 46 0;
#X connect 45 0 44 0;
#X restore 66 27 pd mobmuplat;
#X f 51;
#X obj 68 212 s offset;
#X obj 136 188 s slot;
#X obj 172 136 s time;
#X obj 243 126 unpack f f f f;
#X obj 243 150 s s1;
#X obj 274 177 s s2;
#X obj 306 151 s s3;
#X obj 338 177 s s4;
#X obj 207 78 s rec;
#X text 65 8 MobMuPlat middleware;
#X obj 278 66 s total;
#X obj 313 96 s length;
#X obj 349 67 s pitch;
#X obj 439 87 s dt;
#X obj 492 87 s fb;
#X connect 1 0 2 0;
#X connect 1 1 0 0;
#X connect 1 2 3 0;
#X connect 1 3 4 0;
#X connect 1 4 10 0;
#X connect 1 5 5 0;
#X connect 1 6 12 0;
#X connect 1 7 13 0;
#X connect 1 8 14 0;
#X connect 1 9 15 0;
#X connect 1 10 16 0;
#X connect 5 0 6 0;
#X connect 5 1 7 0;
#X connect 5 2 8 0;
#X connect 5 3 9 0;
#X restore 348 41 pd mobmu_sends;
#X text 353 15 MobMuPlat;
#X obj 748 730 r slot, f 7;
#X obj 688 749 router4, f 16;
#X obj 688 730 r pitch, f 8;
#X obj 688 773 send p1;
#X obj 724 806 send p2;
#X obj 760 787 send p3;
#X obj 797 768 send p4;
#X obj 273 1030 r p2;
#X obj 366 1049 shift;
#X obj 366 1030 r p3;
#X obj 482 1046 shift;
#X obj 482 1027 r p4;
#X obj 176 1030 r p1, f 5;
#X obj 176 1049 shift;
#X obj 273 1049 shift;
#X obj 43 566 hsl 128 25 0 1 0 1 empty empty PITCHSHIFT -2 -16 0 24
-262130 -1 -261234 7200 1;
#X obj 40 610 round_int;
#X obj 40 591 * 12;
#X obj 40 629 - 6;
#X obj 40 648 s pitch;
#X text 35 18 audio in;
#X obj 176 1098 feed, f 12;
#X obj 463 430 hsl 128 25 0 1 0 1 dt empty DELAY_TIME -2 -16 0 18 -262130
-1 -261234 0 1;
#X obj 463 500 hsl 128 25 0 1 0 1 fb empty FEEDBACK -2 -16 0 18 -262130
-1 -261234 0 1;
#X obj 748 860 r slot, f 7;
#X obj 688 879 router4, f 16;
#X obj 688 860 r dt, f 8;
#X obj 688 903 send dt1;
#X obj 724 936 send dt2;
#X obj 760 917 send dt3;
#X obj 797 898 send dt4;
#X obj 748 980 r slot, f 7;
#X obj 688 999 router4, f 16;
#X obj 688 980 r fb, f 8;
#X obj 688 1023 send fb1;
#X obj 724 1056 send fb2;
#X obj 760 1037 send fb3;
#X obj 797 1018 send fb4;
#X obj 191 1079 r dt1;
#X obj 230 1079 r fb1;
#X obj 273 1099 feed, f 12;
#X obj 288 1080 r dt2;
#X obj 327 1080 r fb2;
#X obj 382 1099 feed, f 12;
#X obj 397 1080 r dt3;
#X obj 436 1080 r fb3;
#X obj 482 1099 feed, f 12;
#X obj 497 1080 r dt3;
#X obj 536 1080 r fb3;
#X connect 1 0 0 0;
#X connect 2 0 14 0;
#X connect 3 0 12 0;
#X connect 3 1 12 0;
#X connect 7 0 40 0;
#X connect 8 0 88 0;
#X connect 9 0 41 0;
#X connect 10 0 11 0;
#X connect 10 0 11 1;
#X connect 12 0 4 0;
#X connect 13 0 7 0;
#X connect 13 0 9 0;
#X connect 13 0 16 0;
#X connect 13 0 17 0;
#X connect 14 0 20 0;
#X connect 16 0 42 0;
#X connect 17 0 43 0;
#X connect 18 0 37 0;
#X connect 18 0 38 1;
#X connect 19 0 21 0;
#X connect 20 0 5 0;
#X connect 22 0 34 0;
#X connect 23 0 24 0;
#X connect 24 0 25 0;
#X connect 26 0 34 1;
#X connect 27 0 36 0;
#X connect 28 0 33 0;
#X connect 29 0 33 1;
#X connect 31 0 35 1;
#X connect 32 0 35 0;
#X connect 33 0 7 2;
#X connect 33 1 9 2;
#X connect 33 2 16 2;
#X connect 33 3 17 2;
#X connect 34 0 7 3;
#X connect 34 1 9 3;
#X connect 34 2 16 3;
#X connect 34 3 17 3;
#X connect 35 0 7 4;
#X connect 35 1 9 4;
#X connect 35 2 16 4;
#X connect 35 3 17 4;
#X connect 36 0 7 1;
#X connect 36 1 9 1;
#X connect 36 2 16 1;
#X connect 36 3 17 1;
#X connect 37 0 38 0;
#X connect 38 0 19 0;
#X connect 39 0 40 1;
#X connect 40 0 106 1;
#X connect 41 0 107 1;
#X connect 42 0 101 1;
#X connect 43 0 103 1;
#X connect 44 0 10 1;
#X connect 45 0 41 1;
#X connect 46 0 42 1;
#X connect 47 0 43 1;
#X connect 48 0 36 1;
#X connect 49 0 50 0;
#X connect 51 0 52 0;
#X connect 53 0 54 0;
#X connect 55 0 56 0;
#X connect 58 0 57 0;
#X connect 60 0 61 0;
#X connect 62 0 63 0;
#X connect 64 0 65 0;
#X connect 66 0 67 0;
#X connect 72 0 73 0;
#X connect 73 0 75 0;
#X connect 73 0 78 0;
#X connect 75 0 68 0;
#X connect 75 0 69 0;
#X connect 75 0 70 0;
#X connect 75 0 71 0;
#X connect 76 0 75 0;
#X connect 77 0 75 0;
#X connect 79 0 80 0;
#X connect 81 0 82 0;
#X connect 85 0 86 1;
#X connect 86 0 7 5;
#X connect 86 1 9 5;
#X connect 86 2 16 5;
#X connect 86 3 17 5;
#X connect 87 0 86 0;
#X connect 88 0 84 0;
#X connect 88 0 6 0;
#X connect 89 0 90 0;
#X connect 93 0 94 1;
#X connect 94 0 96 0;
#X connect 94 1 97 0;
#X connect 94 2 98 0;
#X connect 94 3 99 0;
#X connect 95 0 94 0;
#X connect 100 0 107 0;
#X connect 101 0 136 0;
#X connect 102 0 101 0;
#X connect 103 0 139 0;
#X connect 104 0 103 0;
#X connect 105 0 106 0;
#X connect 106 0 114 0;
#X connect 107 0 133 0;
#X connect 108 0 110 0;
#X connect 109 0 111 0;
#X connect 110 0 109 0;
#X connect 111 0 112 0;
#X connect 114 0 10 0;
#X connect 117 0 118 1;
#X connect 118 0 120 0;
#X connect 118 1 121 0;
#X connect 118 2 122 0;
#X connect 118 3 123 0;
#X connect 119 0 118 0;
#X connect 124 0 125 1;
#X connect 125 0 127 0;
#X connect 125 1 128 0;
#X connect 125 2 129 0;
#X connect 125 3 130 0;
#X connect 126 0 125 0;
#X connect 131 0 114 1;
#X connect 132 0 114 2;
#X connect 133 0 10 0;
#X connect 134 0 133 1;
#X connect 135 0 133 2;
#X connect 136 0 10 0;
#X connect 137 0 136 1;
#X connect 138 0 136 2;
#X connect 139 0 10 0;
#X connect 140 0 139 1;
#X connect 141 0 139 2;
