#N canvas 960 23 960 1150 12;
#X msg 765 526 \; pd dsp \$1;
#X obj 765 426 tgl 100 0 empty empty empty 17 7 0 10 -203904 -1 -1
0 1;
#X obj 33 52 hsl 128 25 1 32 0 1 empty empty TIME -2 -16 0 24 -262130
-1 -261234 500 0;
#X obj 152 688 adc~;
#X obj 152 726 throw~ audio;
#X obj 30 114 s time;
#X obj 474 382 hradio 50 1 1 4 slot init_slot STEPS 0 -15 0 24 -204786
-1 -261234 0;
#X obj 208 996 sampler;
#X obj 305 998 sampler;
#X obj 273 1198 *~ 1;
#X obj 273 1242 dac~;
#X obj 152 707 *~ 1;
#X obj 33 907 catch~ audio;
#X obj 30 77 i;
#X obj 398 997 sampler;
#X obj 514 997 sampler;
#X obj 33 190 hsl 128 25 0.01 10 1 1 empty empty LFO -2 -16 0 24 -262130
-1 -261234 0 0;
#X floatatom 30 253 10 0 0 0 - - -;
#X floatatom 30 96 5 0 0 0 - - -;
#X obj 30 271 s lfo;
#X obj 258 770 r lfo;
#X obj 33 360 hsl 128 25 0 1 0 1 empty empty OFFSET -2 -16 0 24 -262130
-1 -261234 0 1;
#X floatatom 30 385 8 0 0 0 - - -;
#X obj 30 403 s offset;
#X obj 297 770 r slot;
#X obj 29 769 r slot;
#X obj 138 770 r time;
#X obj 184 770 r slot;
#X obj 205 273 bng 150 250 50 0 rec empty REC 47 75 0 30 -258113 -204786
-262144;
#X obj 448 770 r slot, f 7;
#X obj 388 770 r offset;
#X obj 138 789 router4, f 13;
#X obj 258 789 router4, f 15;
#X obj 388 789 router4, f 16;
#X obj 29 788 bangrouter4;
#X obj 30 215 > 0.01;
#X obj 30 234 *;
#X obj 222 1021 r s1;
#X obj 208 1040 *~ 0.5;
#X obj 305 1040 *~ 0.5;
#X obj 398 1040 *~ 0.5;
#X obj 514 1040 *~ 0.5;
#X obj 316 1198 r total;
#X obj 319 1021 r s2;
#X obj 412 1021 r s3;
#X obj 528 1021 r s4;
#X obj 75 769 r rec;
#X obj 575 157 vsl 20 128 0 1 0 0 s1 init_mix MIXER 50 -25 0 24 -262130
-1 -261234 10160 1;
#X obj 625 157 vsl 20 128 0 1 0 0 s2 init_mix empty 0 -9 0 10 -262130
-1 -1 10160 1;
#X obj 675 157 vsl 20 128 0 1 0 0 s3 init_mix empty 0 -9 0 10 -262130
-1 -1 10160 1;
#X obj 725 157 vsl 20 128 0 1 0 0 s4 init_mix empty 0 -9 0 10 -262130
-1 -1 10160 1;
#X obj 574 665 loadbang;
#X msg 574 684 0.8;
#X obj 485 85 vsl 40 200 0 1 0 0 total init_mix TOTAL -10 -25 0 24
-262130 -1 -261234 15920 1;
#X obj 205 464 bng 100 250 50 0 clear empty CLEAR 28 50 0 15 -261234
-204786 -45076;
#X obj 474 516 hradio 50 1 1 3 length init_slot SAMPLE_LENGTH 0 -20
0 24 -232576 -1 -261234 0;
#X obj 598 770 r slot, f 7;
#X obj 538 789 router4, f 16;
#X obj 538 770 r length;
#N canvas 0 23 785 468 mobmu_sends 0;
#X obj 101 133 s lfo;
#N canvas 0 610 1280 564 mobmuplat 1;
#X obj 39 207 outlet offset;
#X obj 204 167 outlet slot;
#X obj 300 217 outlet time;
#X obj 385 217 outlet rec;
#X obj 469 217 outlet gains;
#X obj 39 -221 receive fromGUI;
#X obj 39 -190 list trim;
#X obj 385 -171 route /rec;
#X obj 204 -106 route /slots;
#X obj 300 -171 route /time;
#X obj 300 -123 i;
#X obj 204 -82 unpack f f f;
#X obj 385 -147 sel 1;
#X text 201 -53 NB! sends both on ON / OFF;
#X obj 39 -8 unpack f f;
#X obj 39 -36 route /xy;
#X obj 469 -171 route /gains;
#X obj 300 -147 + 1;
#X obj 39 -250 gui_wrapper;
#X text 132 -250 necessary to connect to Mobmuplat editor GUI;
#X obj 569 217 outlet total;
#X obj 569 -171 route /total;
#X obj 790 -171 route /clear;
#X obj 790 -146 sel 1;
#X obj 790 -121 s clear;
#X text 669 -205 clear is received as message in sampler;
#X obj 679 -171 route /length;
#X obj 679 217 outlet length;
#X obj 679 -116 unpack f f f;
#X text 691 -92 NB! sends both on ON / OFF;
#X obj 106 179 outlet lfo;
#X obj 106 54 *;
#X obj 106 105 exp;
#X obj 106 129 - 1;
#X obj 106 78 * 2.5;
#X obj 106 28 > 0.1;
#X obj 745 -12 route /pitch;
#X obj 745 106 outlet pitch;
#X obj 745 48 round_int;
#X obj 745 17 * 12;
#X obj 745 79 - 6;
#X obj 569 174 * 5;
#X obj 912 -11 route /feed;
#X obj 912 13 unpack f f;
#X obj 912 217 outlet dt;
#X obj 912 137 * 1000;
#X obj 979 187 outlet feedback;
#X connect 5 0 6 0;
#X connect 6 0 7 0;
#X connect 6 0 8 0;
#X connect 6 0 9 0;
#X connect 6 0 15 0;
#X connect 6 0 16 0;
#X connect 6 0 21 0;
#X connect 6 0 22 0;
#X connect 6 0 26 0;
#X connect 6 0 36 0;
#X connect 6 0 42 0;
#X connect 7 0 12 0;
#X connect 8 0 11 0;
#X connect 9 0 17 0;
#X connect 10 0 2 0;
#X connect 11 0 1 0;
#X connect 12 0 3 0;
#X connect 14 0 0 0;
#X connect 14 1 31 1;
#X connect 14 1 35 0;
#X connect 15 0 14 0;
#X connect 16 0 4 0;
#X connect 17 0 10 0;
#X connect 21 0 41 0;
#X connect 22 0 23 0;
#X connect 23 0 24 0;
#X connect 26 0 28 0;
#X connect 28 0 27 0;
#X connect 31 0 34 0;
#X connect 32 0 33 0;
#X connect 33 0 30 0;
#X connect 34 0 32 0;
#X connect 35 0 31 0;
#X connect 36 0 39 0;
#X connect 38 0 40 0;
#X connect 39 0 38 0;
#X connect 40 0 37 0;
#X connect 41 0 20 0;
#X connect 42 0 43 0;
#X connect 43 0 45 0;
#X connect 43 1 46 0;
#X connect 45 0 44 0;
#X restore 66 27 pd mobmuplat;
#X f 51;
#X obj 68 212 s offset;
#X obj 136 188 s slot;
#X obj 172 136 s time;
#X obj 243 126 unpack f f f f;
#X obj 243 150 s s1;
#X obj 274 177 s s2;
#X obj 306 151 s s3;
#X obj 338 177 s s4;
#X obj 207 78 s rec;
#X text 65 8 MobMuPlat middleware;
#X obj 278 66 s total;
#X obj 313 96 s length;
#X obj 349 67 s pitch;
#X obj 439 87 s dt;
#X obj 492 87 s fb;
#X connect 1 0 2 0;
#X connect 1 1 0 0;
#X connect 1 2 3 0;
#X connect 1 3 4 0;
#X connect 1 4 10 0;
#X connect 1 5 5 0;
#X connect 1 6 12 0;
#X connect 1 7 13 0;
#X connect 1 8 14 0;
#X connect 1 9 15 0;
#X connect 1 10 16 0;
#X connect 5 0 6 0;
#X connect 5 1 7 0;
#X connect 5 2 8 0;
#X connect 5 3 9 0;
#X restore 29 727 pd mobmu_sends;
#X text 34 701 MobMuPlat;
#X obj 748 770 r slot, f 7;
#X obj 688 789 router4, f 16;
#X obj 688 770 r pitch, f 8;
#X obj 688 813 send p1;
#X obj 724 846 send p2;
#X obj 760 827 send p3;
#X obj 797 808 send p4;
#X obj 273 1070 r p2;
#X obj 366 1089 shift;
#X obj 366 1070 r p3;
#X obj 482 1086 shift;
#X obj 482 1067 r p4;
#X obj 176 1070 r p1, f 5;
#X obj 176 1089 shift;
#X obj 273 1089 shift;
#X obj 33 476 hsl 128 25 0 1 0 1 empty empty PITCHSHIFT -2 -16 0 24
-262130 -1 -261234 0 1;
#X obj 30 520 round_int;
#X obj 30 501 * 12;
#X obj 30 539 - 6;
#X obj 30 576 s pitch;
#X text 149 662 audio in;
#X obj 176 1138 feed, f 12;
#X obj 209 52 hsl 128 25 0 1000 0 1 dt empty DELAY_TIME -2 -16 0 24
-262130 -1 -261234 0 1;
#X obj 209 192 hsl 128 25 0 1 0 1 fb empty FEEDBACK -2 -16 0 24 -262130
-1 -261234 0 1;
#X obj 748 900 r slot, f 7;
#X obj 688 919 router4, f 16;
#X obj 688 900 r dt, f 8;
#X obj 688 938 send dt1;
#X obj 724 977 send dt2;
#X obj 760 958 send dt3;
#X obj 797 939 send dt4;
#X obj 748 1020 r slot, f 7;
#X obj 688 1039 router4, f 16;
#X obj 688 1020 r fb, f 8;
#X obj 688 1058 send fb1;
#X obj 724 1091 send fb2;
#X obj 760 1072 send fb3;
#X obj 797 1053 send fb4;
#X obj 191 1119 r dt1;
#X obj 230 1119 r fb1;
#X obj 273 1139 feed, f 12;
#X obj 288 1120 r dt2;
#X obj 327 1120 r fb2;
#X obj 382 1139 feed, f 12;
#X obj 397 1120 r dt3;
#X obj 436 1120 r fb3;
#X obj 482 1139 feed, f 12;
#X text 29 632 ###############################################################################################################
, f 111;
#X obj 574 703 s init_mix;
#X msg 664 684 0;
#X obj 664 703 s init_slot;
#X floatatom 30 558 5 0 0 0 - - -;
#X floatatom 206 77 5 0 0 0 - - -;
#X floatatom 206 217 8 0 0 0 - - -;
#X text 248 77 ms;
#X text 71 95 division time;
#X text 106 254 freq;
#X text 270 217 %;
#X text 92 385 %;
#X obj 497 1120 r dt4;
#X obj 536 1120 r fb4;
#X text 72 556 semitones;
#X connect 1 0 0 0;
#X connect 2 0 13 0;
#X connect 3 0 11 0;
#X connect 3 1 11 0;
#X connect 7 0 38 0;
#X connect 8 0 39 0;
#X connect 9 0 10 0;
#X connect 9 0 10 1;
#X connect 11 0 4 0;
#X connect 12 0 7 0;
#X connect 12 0 8 0;
#X connect 12 0 14 0;
#X connect 12 0 15 0;
#X connect 13 0 18 0;
#X connect 14 0 40 0;
#X connect 15 0 41 0;
#X connect 16 0 35 0;
#X connect 16 0 36 1;
#X connect 17 0 19 0;
#X connect 18 0 5 0;
#X connect 20 0 32 0;
#X connect 21 0 22 0;
#X connect 22 0 23 0;
#X connect 24 0 32 1;
#X connect 25 0 34 0;
#X connect 26 0 31 0;
#X connect 27 0 31 1;
#X connect 29 0 33 1;
#X connect 30 0 33 0;
#X connect 31 0 7 2;
#X connect 31 1 8 2;
#X connect 31 2 14 2;
#X connect 31 3 15 2;
#X connect 32 0 7 3;
#X connect 32 1 8 3;
#X connect 32 2 14 3;
#X connect 32 3 15 3;
#X connect 33 0 7 4;
#X connect 33 1 8 4;
#X connect 33 2 14 4;
#X connect 33 3 15 4;
#X connect 34 0 7 1;
#X connect 34 1 8 1;
#X connect 34 2 14 1;
#X connect 34 3 15 1;
#X connect 35 0 36 0;
#X connect 36 0 17 0;
#X connect 37 0 38 1;
#X connect 38 0 74 1;
#X connect 39 0 75 1;
#X connect 40 0 69 1;
#X connect 41 0 71 1;
#X connect 42 0 9 1;
#X connect 43 0 39 1;
#X connect 44 0 40 1;
#X connect 45 0 41 1;
#X connect 46 0 34 1;
#X connect 51 0 52 0;
#X connect 51 0 110 0;
#X connect 52 0 109 0;
#X connect 56 0 57 1;
#X connect 57 0 7 5;
#X connect 57 1 8 5;
#X connect 57 2 14 5;
#X connect 57 3 15 5;
#X connect 58 0 57 0;
#X connect 61 0 62 1;
#X connect 62 0 64 0;
#X connect 62 1 65 0;
#X connect 62 2 66 0;
#X connect 62 3 67 0;
#X connect 63 0 62 0;
#X connect 68 0 75 0;
#X connect 69 0 104 0;
#X connect 70 0 69 0;
#X connect 71 0 107 0;
#X connect 72 0 71 0;
#X connect 73 0 74 0;
#X connect 74 0 82 0;
#X connect 75 0 101 0;
#X connect 76 0 78 0;
#X connect 77 0 79 0;
#X connect 78 0 77 0;
#X connect 79 0 112 0;
#X connect 82 0 9 0;
#X connect 83 0 113 0;
#X connect 84 0 114 0;
#X connect 85 0 86 1;
#X connect 86 0 88 0;
#X connect 86 1 89 0;
#X connect 86 2 90 0;
#X connect 86 3 91 0;
#X connect 87 0 86 0;
#X connect 92 0 93 1;
#X connect 93 0 95 0;
#X connect 93 1 96 0;
#X connect 93 2 97 0;
#X connect 93 3 98 0;
#X connect 94 0 93 0;
#X connect 99 0 82 1;
#X connect 100 0 82 2;
#X connect 101 0 9 0;
#X connect 102 0 101 1;
#X connect 103 0 101 2;
#X connect 104 0 9 0;
#X connect 105 0 104 1;
#X connect 106 0 104 2;
#X connect 107 0 9 0;
#X connect 110 0 111 0;
#X connect 112 0 80 0;
#X connect 120 0 107 1;
#X connect 121 0 107 2;
