#N canvas 22 199 960 564 12;
#X obj 212 220 phasor~ 1;
#X msg 666 158 const 0;
#X obj 212 286 *~ 44100;
#X obj 296 192 / 1;
#X obj 180 173 t b f;
#X floatatom 180 125 5 0 0 0 - - -;
#X text 465 257 offset in samples;
#X obj 116 40 inlet;
#X text 117 15 bang;
#X obj 33 40 inlet~;
#X text 31 18 audio;
#X obj 670 67 samplerate~;
#X obj 670 41 r pd-dsp-started;
#X obj 212 515 outlet~;
#X obj 180 80 clip 1 32;
#X obj 670 91 s samplerate;
#X obj 808 67 r samplerate;
#X floatatom 808 91 5 0 0 0 - - -;
#X obj 296 173 r samplerate;
#X text 180 3 the time division of the sample;
#X text 180 19 e.g. a value of 4 is 1/4 th of the sample;
#X obj 34 246 tabwrite~ \$0-sample;
#X obj 666 182 array define \$0-sample 44100;
#X obj 212 486 tabread4~ \$0-sample;
#X obj 212 447 +~, f 4;
#X obj 666 459 snapshot~;
#X msg 734 400 stop;
#X msg 734 376 bang;
#X floatatom 756 483 10 0 0 0 - - -;
#X text 661 355 debug;
#X obj 358 308 osc~ 0.1;
#X obj 358 428 clip~ 0 44100;
#X obj 180 41 inlet time;
#X obj 358 232 inlet lfo;
#X obj 466 282 inlet offset;
#X text 326 193 sample length;
#X obj 666 483 print;
#X obj 358 385 *~ 1;
#X obj 383 256 > 0;
#X floatatom 383 280 5 0 0 0 - - -;
#X obj 358 333 *~ 1;
#X text 419 357 to null the signal;
#X obj 358 357 +~ 1;
#X obj 666 429 metro 100;
#X connect 0 0 2 0;
#X connect 1 0 22 0;
#X connect 2 0 24 0;
#X connect 3 0 2 1;
#X connect 4 0 3 0;
#X connect 4 1 3 1;
#X connect 4 1 0 0;
#X connect 5 0 4 0;
#X connect 7 0 21 0;
#X connect 9 0 21 0;
#X connect 11 0 15 0;
#X connect 12 0 11 0;
#X connect 14 0 5 0;
#X connect 16 0 17 0;
#X connect 18 0 3 0;
#X connect 23 0 13 0;
#X connect 24 0 23 0;
#X connect 25 0 28 0;
#X connect 25 0 36 0;
#X connect 26 0 43 0;
#X connect 27 0 43 0;
#X connect 30 0 40 0;
#X connect 31 0 24 1;
#X connect 32 0 14 0;
#X connect 33 0 30 0;
#X connect 33 0 38 0;
#X connect 34 0 37 1;
#X connect 37 0 31 0;
#X connect 38 0 39 0;
#X connect 39 0 40 1;
#X connect 40 0 42 0;
#X connect 42 0 37 0;
#X connect 43 0 25 0;
