#N canvas 0 609 960 564 12;
#X msg 666 208 const 0;
#X obj 306 220 / 1;
#X obj 180 153 t b f;
#X floatatom 180 119 5 0 0 0 - - -;
#X text 465 257 offset in samples;
#X obj 116 40 inlet;
#X text 117 15 bang;
#X obj 33 40 inlet~;
#X text 31 18 audio;
#X obj 710 87 samplerate~;
#X obj 710 61 r pd-dsp-started;
#X obj 212 515 outlet~;
#X obj 180 79 clip 1 32;
#X text 180 3 the time division of the sample;
#X text 180 19 e.g. a value of 4 is 1/4 th of the sample;
#X obj 34 246 tabwrite~ \$0-sample;
#X obj 212 486 tabread4~ \$0-sample;
#X obj 212 460 +~, f 4;
#X obj 666 459 snapshot~;
#X msg 734 400 stop;
#X msg 734 376 bang;
#X floatatom 756 503 10 0 0 0 - - -;
#X text 664 384 debug;
#X obj 358 308 osc~ 0.1;
#X obj 180 41 inlet time;
#X obj 358 232 inlet lfo;
#X obj 466 282 inlet offset;
#X obj 666 503 print;
#X obj 358 385 *~ 1;
#X obj 383 256 > 0;
#X floatatom 383 280 5 0 0 0 - - -;
#X obj 358 333 *~ 1;
#X obj 358 357 +~ 1;
#X obj 666 429 metro 100;
#X obj 666 182 r clear;
#X obj 552 49 inlet length;
#X obj 552 73 * 2;
#X obj 552 97 sel 0;
#X obj 552 121 + 1;
#X text 550 25 beat multiplior;
#X obj 358 441 clip~ 0 44100;
#X obj 710 111 s sr;
#X floatatom 481 435 10 0 0 0 - - -;
#X obj 212 286 *~ 44100;
#X obj 666 232 array define \$0-sample 44100;
#X obj 552 165 t b f;
#X obj 552 199 * 1;
#X obj 601 165 r sr;
#X msg 743 208 resize \$1;
#X obj 652 283 print rate;
#X obj 212 185 / 1;
#X obj 212 231 phasor~ 1;
#X obj 266 119 t b f;
#X obj 273 41 loadbang;
#X msg 273 60 1;
#X obj 552 223 s \$0-rate;
#X obj 306 190 r \$0-rate;
#X obj 481 411 r \$0-rate;
#X obj 743 182 r \$0-rate;
#X connect 0 0 44 0;
#X connect 1 0 43 1;
#X connect 2 0 1 0;
#X connect 2 1 1 1;
#X connect 2 1 50 0;
#X connect 3 0 2 0;
#X connect 5 0 15 0;
#X connect 7 0 15 0;
#X connect 9 0 41 0;
#X connect 10 0 9 0;
#X connect 12 0 3 0;
#X connect 16 0 11 0;
#X connect 17 0 16 0;
#X connect 18 0 21 0;
#X connect 18 0 27 0;
#X connect 19 0 33 0;
#X connect 20 0 33 0;
#X connect 23 0 31 0;
#X connect 24 0 12 0;
#X connect 25 0 23 0;
#X connect 25 0 29 0;
#X connect 26 0 28 1;
#X connect 28 0 40 0;
#X connect 29 0 30 0;
#X connect 30 0 31 1;
#X connect 31 0 32 0;
#X connect 32 0 28 0;
#X connect 33 0 18 0;
#X connect 34 0 0 0;
#X connect 35 0 36 0;
#X connect 36 0 37 0;
#X connect 37 0 38 0;
#X connect 37 1 45 0;
#X connect 38 0 45 0;
#X connect 40 0 17 1;
#X connect 43 0 17 0;
#X connect 45 1 46 0;
#X connect 45 1 52 0;
#X connect 46 0 49 0;
#X connect 46 0 55 0;
#X connect 47 0 46 1;
#X connect 48 0 44 0;
#X connect 50 0 51 0;
#X connect 51 0 43 0;
#X connect 51 0 18 0;
#X connect 52 0 50 0;
#X connect 52 1 50 1;
#X connect 53 0 54 0;
#X connect 54 0 12 0;
#X connect 56 0 1 0;
#X connect 57 0 42 0;
#X connect 57 0 40 2;
#X connect 58 0 48 0;
