#N canvas -13 -13 2736 1660 12;
#N canvas -13 -13 2736 1660 third 0;
#X floatatom 38 182 0 0 0 0 - - -;
#X obj 164 716 *~;
#X obj 410 590 line~;
#X floatatom 474 224 0 0 0 0 - - -;
#X text 136 18 PITCH SHIFTER;
#X obj 410 538 pack 0 200;
#X obj 474 172 r window;
#X obj 38 286 exp;
#X floatatom 38 338 6 0 0 0 - - -;
#X obj 38 518 /;
#X obj 292 378 * 0.001;
#X obj 628 730 line~;
#X obj 628 680 pack 0 200;
#X floatatom 628 578 0 0 0 0 - - -;
#X obj 628 526 r delay;
#X obj 164 768 +~;
#X obj 38 820 cos~;
#X obj 38 874 *~;
#X obj 38 932 +~;
#X obj 212 634 wrap~;
#X obj 502 720 *~;
#X obj 502 786 +~;
#X obj 376 840 cos~;
#X obj 376 894 *~;
#X obj 984 60 loadbang;
#X obj 292 432 t b f;
#X floatatom 38 570 6 0 0 0 - - -;
#X obj 212 580 +~ 0.5;
#X obj 38 716 -~ 0.5;
#X obj 38 768 *~ 0.5;
#X obj 376 718 -~ 0.5;
#X obj 376 784 *~ 0.5;
#X obj 38 392 - 1;
#X obj 38 234 * 0.05776;
#X obj 38 444 * -1;
#X text 106 172 <-- transposition;
#X text 192 198 (halftones);
#X text 164 326 speed;
#X text 162 354 change;
#X text 562 222 <--window (msec);
#X text 108 504 tape head;
#X text 850 306 This is a classic rotating-tape-head style pitch shifter
using the vd~ variable delay object. Ther are two moving tape heads
\, each of which is loudest at the middle of its trajectory \, and
enveloped out at the moment it has to jump back (or forward) to start
another scratch. Most of the brain work is in computing how fast the
tape heads have to move to get the desired transposition.;
#X text 850 544 The "window size" is the total trajectory of the read
points in the delay line \, in milliseconds. The delay times are controlled
by a phasor~ object. The second delay time \, 180 degrees out of phase
from the first one \, is computed using the "wrap" object.;
#X text 846 724 The "window size" is the total trajectory of the read
points in the delay line \, in milliseconds. The delay times are controlled
by a phasor~ object. The second delay time \, 180 degrees out of phase
from the first one \, is computed using the "wrap" object.;
#X text 844 908 The cos~ objects compute the fadein and fadeout of
the two delay line outputs. They each traverse the positive half of
the cosine waveform (phase -0.25 to +0.25) over the time the phase
goes from one end to the other.;
#X obj 38 632 phasor~;
#X text 1378 1068 updated for Pd version 0.37-1;
#X obj 628 632 max 1.5;
#X text 634 444 delay;
#X text 628 480 (msec);
#X obj 474 278 max 1;
#X text 110 530 rotation freq;
#X obj 525 32 inlet~;
#X obj 38 978 outlet~;
#X msg 984 112 \; window 100 \; delay 0;
#X obj 38 122 inlet;
#X obj 528 84 delwrite~ third 5000;
#X obj 164 820 vd~ third;
#X obj 502 844 vd~ third;
#X connect 0 0 33 0;
#X connect 1 0 15 0;
#X connect 2 0 1 1;
#X connect 2 0 20 1;
#X connect 3 0 50 0;
#X connect 5 0 2 0;
#X connect 6 0 3 0;
#X connect 7 0 8 0;
#X connect 8 0 32 0;
#X connect 9 0 26 0;
#X connect 10 0 25 0;
#X connect 11 0 15 1;
#X connect 11 0 21 1;
#X connect 12 0 11 0;
#X connect 13 0 47 0;
#X connect 14 0 13 0;
#X connect 15 0 57 0;
#X connect 16 0 17 0;
#X connect 17 0 18 0;
#X connect 18 0 53 0;
#X connect 19 0 20 0;
#X connect 19 0 30 0;
#X connect 20 0 21 0;
#X connect 21 0 58 0;
#X connect 22 0 23 0;
#X connect 23 0 18 1;
#X connect 24 0 54 0;
#X connect 25 0 9 0;
#X connect 25 1 9 1;
#X connect 26 0 45 0;
#X connect 27 0 19 0;
#X connect 28 0 29 0;
#X connect 29 0 16 0;
#X connect 30 0 31 0;
#X connect 31 0 22 0;
#X connect 32 0 34 0;
#X connect 33 0 7 0;
#X connect 34 0 9 0;
#X connect 45 0 1 0;
#X connect 45 0 28 0;
#X connect 45 0 27 0;
#X connect 47 0 12 0;
#X connect 50 0 10 0;
#X connect 50 0 5 0;
#X connect 52 0 56 0;
#X connect 55 0 0 0;
#X connect 57 0 17 1;
#X connect 58 0 23 1;
#X restore 273 366 pd third;
#X obj 126 292 adc~;
#X obj 379 652 dac~;
#X obj 253 425 +~;
#X floatatom 252 292 5 0 0 0 - - -;
#X msg 599 240 \; pd dsp \$1 \;;
#X obj 606 170 tgl 15 0 empty empty empty 17 7 0 10 -262144 -1 -1 0
1;
#N canvas -13 -13 2736 1660 fifth 0;
#X floatatom 38 182 0 0 0 0 - - -;
#X obj 164 716 *~;
#X obj 410 590 line~;
#X floatatom 474 224 0 0 0 0 - - -;
#X text 136 18 PITCH SHIFTER;
#X obj 410 538 pack 0 200;
#X obj 474 172 r window;
#X obj 38 286 exp;
#X floatatom 38 338 6 0 0 0 - - -;
#X obj 38 518 /;
#X obj 292 378 * 0.001;
#X obj 628 730 line~;
#X obj 628 680 pack 0 200;
#X floatatom 628 578 0 0 0 0 - - -;
#X obj 628 526 r delay;
#X obj 164 768 +~;
#X obj 38 820 cos~;
#X obj 38 874 *~;
#X obj 38 932 +~;
#X obj 212 634 wrap~;
#X obj 502 720 *~;
#X obj 502 786 +~;
#X obj 376 840 cos~;
#X obj 376 894 *~;
#X obj 984 60 loadbang;
#X obj 292 432 t b f;
#X floatatom 38 570 6 0 0 0 - - -;
#X obj 212 580 +~ 0.5;
#X obj 38 716 -~ 0.5;
#X obj 38 768 *~ 0.5;
#X obj 376 718 -~ 0.5;
#X obj 376 784 *~ 0.5;
#X obj 38 392 - 1;
#X obj 38 234 * 0.05776;
#X obj 38 444 * -1;
#X text 106 172 <-- transposition;
#X text 192 198 (halftones);
#X text 164 326 speed;
#X text 162 354 change;
#X text 562 222 <--window (msec);
#X text 108 504 tape head;
#X text 850 306 This is a classic rotating-tape-head style pitch shifter
using the vd~ variable delay object. Ther are two moving tape heads
\, each of which is loudest at the middle of its trajectory \, and
enveloped out at the moment it has to jump back (or forward) to start
another scratch. Most of the brain work is in computing how fast the
tape heads have to move to get the desired transposition.;
#X text 850 544 The "window size" is the total trajectory of the read
points in the delay line \, in milliseconds. The delay times are controlled
by a phasor~ object. The second delay time \, 180 degrees out of phase
from the first one \, is computed using the "wrap" object.;
#X text 846 724 The "window size" is the total trajectory of the read
points in the delay line \, in milliseconds. The delay times are controlled
by a phasor~ object. The second delay time \, 180 degrees out of phase
from the first one \, is computed using the "wrap" object.;
#X text 844 908 The cos~ objects compute the fadein and fadeout of
the two delay line outputs. They each traverse the positive half of
the cosine waveform (phase -0.25 to +0.25) over the time the phase
goes from one end to the other.;
#X obj 38 632 phasor~;
#X text 1378 1068 updated for Pd version 0.37-1;
#X obj 628 632 max 1.5;
#X text 634 444 delay;
#X text 628 480 (msec);
#X obj 474 278 max 1;
#X text 110 530 rotation freq;
#X obj 525 32 inlet~;
#X obj 38 978 outlet~;
#X msg 984 112 \; window 100 \; delay 0;
#X obj 38 122 inlet;
#X obj 528 84 delwrite~ fifth 5000;
#X obj 164 820 vd~ fifth;
#X obj 502 844 vd~ fifth;
#X connect 0 0 33 0;
#X connect 1 0 15 0;
#X connect 2 0 1 1;
#X connect 2 0 20 1;
#X connect 3 0 50 0;
#X connect 5 0 2 0;
#X connect 6 0 3 0;
#X connect 7 0 8 0;
#X connect 8 0 32 0;
#X connect 9 0 26 0;
#X connect 10 0 25 0;
#X connect 11 0 15 1;
#X connect 11 0 21 1;
#X connect 12 0 11 0;
#X connect 13 0 47 0;
#X connect 14 0 13 0;
#X connect 15 0 57 0;
#X connect 16 0 17 0;
#X connect 17 0 18 0;
#X connect 18 0 53 0;
#X connect 19 0 20 0;
#X connect 19 0 30 0;
#X connect 20 0 21 0;
#X connect 21 0 58 0;
#X connect 22 0 23 0;
#X connect 23 0 18 1;
#X connect 24 0 54 0;
#X connect 25 0 9 0;
#X connect 25 1 9 1;
#X connect 26 0 45 0;
#X connect 27 0 19 0;
#X connect 28 0 29 0;
#X connect 29 0 16 0;
#X connect 30 0 31 0;
#X connect 31 0 22 0;
#X connect 32 0 34 0;
#X connect 33 0 7 0;
#X connect 34 0 9 0;
#X connect 45 0 1 0;
#X connect 45 0 28 0;
#X connect 45 0 27 0;
#X connect 47 0 12 0;
#X connect 50 0 10 0;
#X connect 50 0 5 0;
#X connect 52 0 56 0;
#X connect 55 0 0 0;
#X connect 57 0 17 1;
#X connect 58 0 23 1;
#X restore 350 367 pd fifth;
#X obj 305 473 +~;
#X floatatom 357 297 5 0 0 0 - - -;
#N canvas -13 -13 2736 1660 seventh 0;
#X floatatom 38 182 0 0 0 0 - - -;
#X obj 164 716 *~;
#X obj 410 590 line~;
#X floatatom 474 224 0 0 0 0 - - -;
#X text 136 18 PITCH SHIFTER;
#X obj 410 538 pack 0 200;
#X obj 474 172 r window;
#X obj 38 286 exp;
#X floatatom 38 338 6 0 0 0 - - -;
#X obj 38 518 /;
#X obj 292 378 * 0.001;
#X obj 628 730 line~;
#X obj 628 680 pack 0 200;
#X floatatom 628 578 0 0 0 0 - - -;
#X obj 628 526 r delay;
#X obj 164 768 +~;
#X obj 38 820 cos~;
#X obj 38 874 *~;
#X obj 38 932 +~;
#X obj 212 634 wrap~;
#X obj 502 720 *~;
#X obj 502 786 +~;
#X obj 376 840 cos~;
#X obj 376 894 *~;
#X obj 984 60 loadbang;
#X obj 292 432 t b f;
#X floatatom 38 570 6 0 0 0 - - -;
#X obj 212 580 +~ 0.5;
#X obj 38 716 -~ 0.5;
#X obj 38 768 *~ 0.5;
#X obj 376 718 -~ 0.5;
#X obj 376 784 *~ 0.5;
#X obj 38 392 - 1;
#X obj 38 234 * 0.05776;
#X obj 38 444 * -1;
#X text 106 172 <-- transposition;
#X text 192 198 (halftones);
#X text 164 326 speed;
#X text 162 354 change;
#X text 562 222 <--window (msec);
#X text 108 504 tape head;
#X text 850 306 This is a classic rotating-tape-head style pitch shifter
using the vd~ variable delay object. Ther are two moving tape heads
\, each of which is loudest at the middle of its trajectory \, and
enveloped out at the moment it has to jump back (or forward) to start
another scratch. Most of the brain work is in computing how fast the
tape heads have to move to get the desired transposition.;
#X text 850 544 The "window size" is the total trajectory of the read
points in the delay line \, in milliseconds. The delay times are controlled
by a phasor~ object. The second delay time \, 180 degrees out of phase
from the first one \, is computed using the "wrap" object.;
#X text 846 724 The "window size" is the total trajectory of the read
points in the delay line \, in milliseconds. The delay times are controlled
by a phasor~ object. The second delay time \, 180 degrees out of phase
from the first one \, is computed using the "wrap" object.;
#X text 844 908 The cos~ objects compute the fadein and fadeout of
the two delay line outputs. They each traverse the positive half of
the cosine waveform (phase -0.25 to +0.25) over the time the phase
goes from one end to the other.;
#X obj 38 632 phasor~;
#X text 1378 1068 updated for Pd version 0.37-1;
#X obj 628 632 max 1.5;
#X text 634 444 delay;
#X text 628 480 (msec);
#X obj 474 278 max 1;
#X text 110 530 rotation freq;
#X obj 525 32 inlet~;
#X obj 38 978 outlet~;
#X msg 984 112 \; window 100 \; delay 0;
#X obj 38 122 inlet;
#X obj 528 84 delwrite~ seventh 5000;
#X obj 502 844 vd~ seventh;
#X obj 164 820 vd~ seventh;
#X connect 0 0 33 0;
#X connect 1 0 15 0;
#X connect 2 0 1 1;
#X connect 2 0 20 1;
#X connect 3 0 50 0;
#X connect 5 0 2 0;
#X connect 6 0 3 0;
#X connect 7 0 8 0;
#X connect 8 0 32 0;
#X connect 9 0 26 0;
#X connect 10 0 25 0;
#X connect 11 0 15 1;
#X connect 11 0 21 1;
#X connect 12 0 11 0;
#X connect 13 0 47 0;
#X connect 14 0 13 0;
#X connect 15 0 58 0;
#X connect 16 0 17 0;
#X connect 17 0 18 0;
#X connect 18 0 53 0;
#X connect 19 0 20 0;
#X connect 19 0 30 0;
#X connect 20 0 21 0;
#X connect 21 0 57 0;
#X connect 22 0 23 0;
#X connect 23 0 18 1;
#X connect 24 0 54 0;
#X connect 25 0 9 0;
#X connect 25 1 9 1;
#X connect 26 0 45 0;
#X connect 27 0 19 0;
#X connect 28 0 29 0;
#X connect 29 0 16 0;
#X connect 30 0 31 0;
#X connect 31 0 22 0;
#X connect 32 0 34 0;
#X connect 33 0 7 0;
#X connect 34 0 9 0;
#X connect 45 0 1 0;
#X connect 45 0 28 0;
#X connect 45 0 27 0;
#X connect 47 0 12 0;
#X connect 50 0 10 0;
#X connect 50 0 5 0;
#X connect 52 0 56 0;
#X connect 55 0 0 0;
#X connect 57 0 23 1;
#X connect 58 0 17 1;
#X restore 428 366 pd seventh;
#X obj 377 575 /~ 4;
#X obj 379 506 +~;
#X floatatom 457 293 5 0 0 0 - - -;
#X msg 236 247 3;
#X msg 334 248 6;
#X msg 437 247 10;
#X obj 230 108 notein;
#X obj 318 153 sel 11 12 13 14;
#X msg 281 248 4;
#X msg 381 245 7;
#X msg 485 248 11;
#X msg 295 107 11;
#X msg 336 107 12;
#X msg 380 107 13;
#X msg 422 107 14;
#X text 295 82 maj;
#X text 335 82 min;
#X text 380 83 dom;
#X text 417 84 h-dim;
#X connect 0 0 3 1;
#X connect 1 0 0 1;
#X connect 1 0 3 0;
#X connect 1 0 7 1;
#X connect 1 0 10 1;
#X connect 3 0 8 0;
#X connect 4 0 0 0;
#X connect 6 0 5 0;
#X connect 7 0 8 1;
#X connect 8 0 12 0;
#X connect 9 0 7 0;
#X connect 10 0 12 1;
#X connect 11 0 2 0;
#X connect 11 0 2 1;
#X connect 12 0 11 0;
#X connect 13 0 10 0;
#X connect 14 0 4 0;
#X connect 15 0 9 0;
#X connect 16 0 13 0;
#X connect 17 0 18 0;
#X connect 18 0 19 0;
#X connect 18 0 20 0;
#X connect 18 0 21 0;
#X connect 18 1 14 0;
#X connect 18 1 20 0;
#X connect 18 1 16 0;
#X connect 18 2 19 0;
#X connect 18 2 20 0;
#X connect 18 2 16 0;
#X connect 18 3 14 0;
#X connect 18 3 15 0;
#X connect 18 3 16 0;
#X connect 19 0 4 0;
#X connect 20 0 9 0;
#X connect 21 0 13 0;
#X connect 22 0 18 0;
#X connect 23 0 18 0;
#X connect 24 0 18 0;
#X connect 25 0 18 0;
