#N canvas 960 23 960 1150 12;
#X msg 224 70 \; pd dsp \$1;
#X obj 224 34 tgl 30 0 empty empty empty 17 7 0 10 -203904 -1 -1 0
1;
#X text 224 13 turn dsp on/off;
#X obj 43 202 hsl 128 25 1 32 1 1 empty empty TIME -2 -16 0 24 -262130
-1 -261234 4200 0;
#X obj 38 44 adc~;
#X obj 38 108 throw~ audio;
#X obj 40 278 s time;
#X obj 266 202 hradio 50 1 1 4 empty empty STEPS 0 -35 0 24 -204786
-1 -261234 1;
#N canvas 0 23 450 300 router4 0;
#X obj 22 96 list prepend;
#X obj 22 140 route 0 1 2 3;
#X obj 22 224 outlet;
#X obj 44 174 outlet;
#X obj 66 198 outlet;
#X obj 88 225 outlet;
#X obj 123 63 t b f;
#X obj 22 64 f;
#X obj 22 10 inlet value;
#X obj 123 10 inlet slot;
#X connect 0 0 1 0;
#X connect 1 0 2 0;
#X connect 1 1 3 0;
#X connect 1 2 4 0;
#X connect 1 3 5 0;
#X connect 6 1 0 1;
#X connect 7 0 0 0;
#X connect 8 0 7 0;
#X connect 9 0 6 0;
#X restore 208 749 pd router4;
#X f 13;
#X obj 208 956 sampler;
#X obj 266 183 loadbang;
#X obj 305 958 sampler;
#X obj 258 1003 *~ 1;
#X obj 258 1043 dac~;
#X obj 38 78 *~ 1;
#X text 296 1003 TO DO: divide this by the amount of voices (?);
#X obj 33 938 catch~ audio;
#X text 35 18 audio input;
#X obj 40 231 i;
#X text 69 231 convert to int;
#N canvas 0 23 506 325 bangrouter4 0;
#X obj 22 10 inlet i;
#X obj 22 140 route 0 1 2 3;
#X obj 22 250 outlet;
#X obj 44 200 outlet;
#X obj 66 224 outlet;
#X obj 88 251 outlet;
#X obj 22 64 f;
#X obj 99 10 inlet bang;
#X connect 0 0 6 1;
#X connect 1 0 2 0;
#X connect 1 1 3 0;
#X connect 1 2 4 0;
#X connect 1 3 5 0;
#X connect 6 0 1 0;
#X connect 7 0 6 0;
#X restore 59 748 pd bangrouter4;
#X obj 398 957 sampler;
#X obj 514 957 sampler;
#X obj 43 350 hsl 128 25 0.1 10 1 1 empty empty LFO -2 -16 0 24 -262130
-1 -261234 5900 0;
#X floatatom 40 380 10 0 0 0 - - -;
#X floatatom 40 255 10 0 0 0 - - -;
#X obj 40 404 s lfo;
#X obj 328 730 r lfo;
#X obj 43 470 hsl 128 25 1 20000 1 1 empty empty OFFSET -2 -16 0 24
-262130 -1 -261234 8600 0;
#X floatatom 40 521 10 0 0 0 - - -;
#X obj 40 499 i;
#X text 69 499 convert to int;
#X obj 40 543 s offset;
#X obj 266 252 s slot;
#X obj 367 730 r slot;
#X obj 59 729 r slot;
#X obj 208 730 r time;
#X obj 254 730 r slot;
#N canvas 0 23 450 300 router4 0;
#X obj 22 96 list prepend;
#X obj 22 140 route 0 1 2 3;
#X obj 22 224 outlet;
#X obj 44 174 outlet;
#X obj 66 198 outlet;
#X obj 88 225 outlet;
#X obj 123 63 t b f;
#X obj 22 64 f;
#X obj 22 10 inlet value;
#X obj 123 10 inlet slot;
#X connect 0 0 1 0;
#X connect 1 0 2 0;
#X connect 1 1 3 0;
#X connect 1 2 4 0;
#X connect 1 3 5 0;
#X connect 6 1 0 1;
#X connect 7 0 0 0;
#X connect 8 0 7 0;
#X connect 9 0 6 0;
#X restore 328 749 pd router4;
#X f 13;
#X obj 274 394 bng 150 250 50 0 rec_snd empty REC 47 75 0 30 -258113
-204786 -262144;
#X obj 105 729 r rec_snd;
#X obj 518 730 r slot, f 7;
#N canvas 0 23 450 300 router4 0;
#X obj 22 96 list prepend;
#X obj 22 140 route 0 1 2 3;
#X obj 22 224 outlet;
#X obj 44 174 outlet;
#X obj 66 198 outlet;
#X obj 88 225 outlet;
#X obj 123 63 t b f;
#X obj 22 64 f;
#X obj 22 10 inlet value;
#X obj 123 10 inlet slot;
#X connect 0 0 1 0;
#X connect 1 0 2 0;
#X connect 1 1 3 0;
#X connect 1 2 4 0;
#X connect 1 3 5 0;
#X connect 6 1 0 1;
#X connect 7 0 0 0;
#X connect 8 0 7 0;
#X connect 9 0 6 0;
#X restore 458 749 pd router4;
#X f 16;
#X obj 458 730 r offset;
#X connect 1 0 0 0;
#X connect 3 0 18 0;
#X connect 4 0 14 0;
#X connect 7 0 33 0;
#X connect 8 0 9 2;
#X connect 8 1 11 2;
#X connect 8 2 21 2;
#X connect 8 3 22 2;
#X connect 9 0 12 0;
#X connect 10 0 7 0;
#X connect 11 0 12 0;
#X connect 12 0 13 0;
#X connect 12 0 13 1;
#X connect 14 0 5 0;
#X connect 16 0 9 0;
#X connect 16 0 11 0;
#X connect 16 0 21 0;
#X connect 16 0 22 0;
#X connect 18 0 25 0;
#X connect 20 0 9 1;
#X connect 20 1 11 1;
#X connect 20 2 21 1;
#X connect 20 3 22 1;
#X connect 21 0 12 0;
#X connect 22 0 12 0;
#X connect 23 0 24 0;
#X connect 24 0 26 0;
#X connect 25 0 6 0;
#X connect 27 0 38 0;
#X connect 28 0 30 0;
#X connect 29 0 32 0;
#X connect 30 0 29 0;
#X connect 34 0 38 1;
#X connect 35 0 20 0;
#X connect 36 0 8 0;
#X connect 37 0 8 1;
#X connect 38 0 9 3;
#X connect 38 1 11 3;
#X connect 38 2 21 3;
#X connect 38 3 22 3;
#X connect 40 0 20 1;
#X connect 41 0 42 1;
#X connect 42 0 9 4;
#X connect 42 1 11 4;
#X connect 42 2 21 3;
#X connect 42 3 22 4;
#X connect 43 0 42 0;
