#N canvas 960 23 960 1150 12;
#X msg 224 70 \; pd dsp \$1;
#X obj 224 34 tgl 30 0 empty empty empty 17 7 0 10 -203904 -1 -1 0
1;
#X text 224 13 turn dsp on/off;
#X obj 43 202 hsl 128 25 1 32 0 1 empty empty TIME -2 -16 0 24 -262130
-1 -261234 2900 0;
#X obj 38 44 adc~;
#X obj 38 108 throw~ audio;
#X obj 40 278 s time;
#X obj 266 202 hradio 50 1 1 4 empty empty STEPS 0 -35 0 24 -204786
-1 -261234 1;
#X obj 208 956 sampler;
#X obj 266 183 loadbang;
#X obj 305 958 sampler;
#X obj 208 1063 *~ 1;
#X obj 208 1103 dac~;
#X obj 38 78 *~ 1;
#X obj 33 937 catch~ audio;
#X text 35 18 audio input;
#X obj 40 231 i;
#X text 69 231 convert to int;
#X obj 398 957 sampler;
#X obj 514 957 sampler;
#X obj 43 340 hsl 128 25 0.01 10 1 1 empty empty LFO -2 -16 0 24 -262130
-1 -261234 8100 0;
#X floatatom 40 424 10 0 0 0 - - -;
#X floatatom 40 255 10 0 0 0 - - -;
#X obj 40 447 s lfo;
#X obj 328 730 r lfo;
#X obj 43 510 hsl 128 25 1 20000 0 1 empty empty OFFSET -2 -16 0 24
-262130 -1 -261234 1700 1;
#X floatatom 40 561 10 0 0 0 - - -;
#X obj 40 539 i;
#X text 69 539 convert to int;
#X obj 40 583 s offset;
#X obj 266 252 s slot;
#X obj 367 730 r slot;
#X obj 59 729 r slot;
#X obj 208 730 r time;
#X obj 254 730 r slot;
#X obj 274 394 bng 150 250 50 0 rec_snd empty REC 47 75 0 30 -258113
-204786 -262144;
#X obj 105 729 r rec_snd;
#X obj 518 730 r slot, f 7;
#X obj 458 730 r offset;
#X obj 208 749 router4, f 13;
#X obj 328 749 router4, f 15;
#X obj 458 749 router4, f 16;
#X obj 59 748 bangrouter4;
#X obj 40 374 > 0.01;
#X obj 40 398 *;
#X obj 615 197 vsl 20 128 0 1 0 0 s1 empty empty 0 -9 0 10 -204800
-1 -1 10160 1;
#X obj 665 197 vsl 20 128 0 1 0 0 s2 empty empty 0 -9 0 10 -204786
-1 -1 8260 1;
#X obj 715 197 vsl 20 128 0 1 0 0 s3 empty empty 0 -9 0 10 -261234
-1 -1 6960 1;
#X obj 765 197 vsl 20 128 0 1 0 0 s4 empty empty 0 -9 0 10 -262130
-1 -1 10160 1;
#X obj 665 51 loadbang;
#X msg 665 104 0.8;
#X text 808 186 VOICE MIXER;
#X floatatom 665 161 5 0 0 0 - - -;
#X msg 715 142 0.25;
#X msg 615 142 0.4;
#X obj 222 981 r s1;
#X obj 208 1000 *~ 0.5;
#X obj 305 1000 *~ 0.5;
#X obj 398 1000 *~ 0.5;
#X obj 514 1000 *~ 0.5;
#X obj 343 1044 r total;
#X obj 525 125 vsl 40 200 0 1 0 0 total empty TOTAL 0 -25 0 20 -262130
-1 -261234 15920 1;
#X obj 319 981 r s2;
#X obj 412 981 r s3;
#X obj 528 981 r s4;
#X connect 1 0 0 0;
#X connect 3 0 16 0;
#X connect 4 0 13 0;
#X connect 7 0 30 0;
#X connect 8 0 56 0;
#X connect 9 0 7 0;
#X connect 10 0 57 0;
#X connect 11 0 12 0;
#X connect 11 0 12 1;
#X connect 13 0 5 0;
#X connect 14 0 10 0;
#X connect 14 0 18 0;
#X connect 14 0 8 0;
#X connect 14 0 19 0;
#X connect 16 0 22 0;
#X connect 18 0 58 0;
#X connect 19 0 59 0;
#X connect 20 0 43 0;
#X connect 20 0 44 1;
#X connect 21 0 23 0;
#X connect 22 0 6 0;
#X connect 24 0 40 0;
#X connect 25 0 27 0;
#X connect 26 0 29 0;
#X connect 27 0 26 0;
#X connect 31 0 40 1;
#X connect 32 0 42 0;
#X connect 33 0 39 0;
#X connect 34 0 39 1;
#X connect 36 0 42 1;
#X connect 37 0 41 1;
#X connect 38 0 41 0;
#X connect 39 0 8 2;
#X connect 39 1 10 2;
#X connect 39 2 18 2;
#X connect 39 3 19 2;
#X connect 40 0 8 3;
#X connect 40 1 10 3;
#X connect 40 2 18 3;
#X connect 40 3 19 3;
#X connect 41 0 8 4;
#X connect 41 1 10 4;
#X connect 41 2 18 4;
#X connect 41 3 19 4;
#X connect 42 0 8 1;
#X connect 42 1 10 1;
#X connect 42 2 18 1;
#X connect 42 3 19 1;
#X connect 43 0 44 0;
#X connect 44 0 21 0;
#X connect 49 0 50 0;
#X connect 50 0 52 0;
#X connect 50 0 61 0;
#X connect 52 0 45 0;
#X connect 52 0 46 0;
#X connect 52 0 47 0;
#X connect 52 0 48 0;
#X connect 53 0 52 0;
#X connect 54 0 52 0;
#X connect 55 0 56 1;
#X connect 56 0 11 0;
#X connect 57 0 11 0;
#X connect 58 0 11 0;
#X connect 59 0 11 0;
#X connect 60 0 11 1;
#X connect 62 0 57 1;
#X connect 63 0 58 1;
#X connect 64 0 59 1;
