#N canvas 960 23 960 1150 12;
#X msg 224 70 \; pd dsp \$1;
#X obj 224 34 tgl 30 0 empty empty empty 17 7 0 10 -203904 -1 -1 0
1;
#X text 224 13 turn dsp on/off;
#X obj 43 202 hsl 128 25 1 32 1 1 empty empty TIME -2 -16 0 24 -262130
-1 -261234 4200 0;
#X obj 38 44 adc~;
#X obj 38 108 throw~ audio;
#X obj 40 278 s time;
#X obj 266 202 hradio 50 1 1 4 empty empty STEPS 0 -35 0 24 -204786
-1 -261234 1;
#X obj 208 956 sampler;
#X obj 266 183 loadbang;
#X obj 305 958 sampler;
#X obj 258 1003 *~ 1;
#X obj 258 1043 dac~;
#X obj 38 78 *~ 1;
#X text 296 1003 TO DO: divide this by the amount of voices (?);
#X obj 33 938 catch~ audio;
#X text 35 18 audio input;
#X obj 40 231 i;
#X text 69 231 convert to int;
#X obj 398 957 sampler;
#X obj 514 957 sampler;
#X obj 43 350 hsl 128 25 0.1 10 1 1 empty empty LFO -2 -16 0 24 -262130
-1 -261234 5900 0;
#X floatatom 40 380 10 0 0 0 - - -;
#X floatatom 40 255 10 0 0 0 - - -;
#X obj 40 404 s lfo;
#X obj 328 730 r lfo;
#X obj 43 470 hsl 128 25 1 20000 1 1 empty empty OFFSET -2 -16 0 24
-262130 -1 -261234 8600 0;
#X floatatom 40 521 10 0 0 0 - - -;
#X obj 40 499 i;
#X text 69 499 convert to int;
#X obj 40 543 s offset;
#X obj 266 252 s slot;
#X obj 367 730 r slot;
#X obj 59 729 r slot;
#X obj 208 730 r time;
#X obj 254 730 r slot;
#X obj 274 394 bng 150 250 50 0 rec_snd empty REC 47 75 0 30 -258113
-204786 -262144;
#X obj 105 729 r rec_snd;
#X obj 518 730 r slot, f 7;
#X obj 458 730 r offset;
#X obj 208 749 router4, f 13;
#X obj 328 749 router4, f 15;
#X obj 458 749 router4, f 16;
#X obj 59 748 bangrouter4;
#X connect 1 0 0 0;
#X connect 3 0 17 0;
#X connect 4 0 13 0;
#X connect 7 0 31 0;
#X connect 8 0 11 0;
#X connect 9 0 7 0;
#X connect 10 0 11 0;
#X connect 11 0 12 0;
#X connect 11 0 12 1;
#X connect 13 0 5 0;
#X connect 15 0 8 0;
#X connect 15 0 10 0;
#X connect 15 0 19 0;
#X connect 15 0 20 0;
#X connect 17 0 23 0;
#X connect 19 0 11 0;
#X connect 20 0 11 0;
#X connect 21 0 22 0;
#X connect 22 0 24 0;
#X connect 23 0 6 0;
#X connect 25 0 41 0;
#X connect 26 0 28 0;
#X connect 27 0 30 0;
#X connect 28 0 27 0;
#X connect 32 0 41 1;
#X connect 33 0 43 0;
#X connect 34 0 40 0;
#X connect 35 0 40 1;
#X connect 37 0 43 1;
#X connect 38 0 42 1;
#X connect 39 0 42 0;
#X connect 40 0 8 2;
#X connect 40 1 10 2;
#X connect 40 2 19 2;
#X connect 40 3 20 2;
#X connect 41 0 8 3;
#X connect 41 1 10 3;
#X connect 41 2 19 3;
#X connect 41 3 20 3;
#X connect 42 0 8 4;
#X connect 42 1 10 4;
#X connect 42 2 19 3;
#X connect 42 3 20 4;
#X connect 43 0 8 1;
#X connect 43 1 10 1;
#X connect 43 2 19 1;
#X connect 43 3 20 1;
