#N canvas 960 23 960 1150 12;
#X msg 224 70 \; pd dsp \$1;
#X obj 225 34 tgl 30 0 empty empty empty 17 7 0 10 -203904 -1 -1 0
1;
#X text 224 13 turn dsp on/off;
#X obj 743 640 hsl 128 25 1 32 1 1 empty empty TIME -2 -16 0 24 -262130
-1 -261234 6800 0;
#X obj 38 44 adc~;
#X obj 38 108 throw~ audio;
#X obj 740 694 s time;
#X obj 739 510 vsl 25 50 0.01 3 0 0 offset_snd offset_rcv OFFSET 0
-20 0 24 -262130 -1 -261234 4508 0;
#X floatatom 389 499 5 0 0 0 - - -;
#X floatatom 421 517 5 0 0 0 - - -;
#X floatatom 454 497 5 0 0 0 - - -;
#X floatatom 486 515 5 0 0 0 - - -;
#X floatatom 519 496 5 0 0 0 - - -;
#N canvas 0 23 450 300 map 0;
#X obj 37 77 inlet;
#X text 36 54 x;
#X obj 102 77 inlet;
#X obj 168 77 inlet;
#X obj 234 77 inlet;
#X obj 300 77 inlet;
#X text 108 54 a;
#X text 176 54 b;
#X text 246 54 c;
#X text 306 54 d;
#X obj 37 185 expr ($f1-$f2)/($f3-$f2)*($f5-$f4)+$f4, f 39;
#X obj 37 241 outlet;
#X obj 102 101 t b f;
#X obj 168 101 t b f;
#X obj 234 101 t b f;
#X obj 300 101 t b f;
#X obj 37 101 t b f;
#X text 35 13 map x from [a \, b] to [c \, d];
#X connect 0 0 16 0;
#X connect 2 0 12 0;
#X connect 3 0 13 0;
#X connect 4 0 14 0;
#X connect 5 0 15 0;
#X connect 10 0 11 0;
#X connect 12 0 10 0;
#X connect 12 1 10 1;
#X connect 13 0 10 0;
#X connect 13 1 10 2;
#X connect 14 0 10 0;
#X connect 14 1 10 3;
#X connect 15 0 10 0;
#X connect 15 1 10 4;
#X connect 16 1 10 0;
#X restore 389 540 pd map;
#X f 19;
#X obj 126 664 hradio 30 1 1 4 empty empty STEPS 10 -16 0 24 -204786
-1 -261234 0;
#X obj 59 709 r time;
#N canvas 0 23 450 300 router4 0;
#X obj 22 96 list prepend;
#X obj 103 5 inlet value;
#X obj 22 10 inlet i;
#X obj 22 140 route 0 1 2 3;
#X obj 22 224 outlet;
#X obj 44 174 outlet;
#X obj 66 198 outlet;
#X obj 88 225 outlet;
#X obj 103 45 t b f;
#X obj 22 64 f;
#X connect 0 0 3 0;
#X connect 1 0 8 0;
#X connect 2 0 9 0;
#X connect 3 0 4 0;
#X connect 3 1 5 0;
#X connect 3 2 6 0;
#X connect 3 3 7 0;
#X connect 8 1 0 1;
#X connect 9 0 0 0;
#X restore 59 728 pd router4;
#X obj 208 956 sampler;
#X obj 389 564 print map;
#X obj 46 645 loadbang;
#X obj 446 776 bng 80 250 50 0 empty empty rec 22 40 0 20 -258113 -1
-262144;
#X obj 305 958 sampler;
#X obj 546 776 bng 80 250 50 0 empty empty rec 22 40 0 20 -258113 -1
-262144;
#X obj 258 1003 *~ 1;
#X obj 258 1043 dac~;
#X obj 38 78 *~ 1;
#N canvas 0 23 450 300 router4 0;
#X obj 22 96 list prepend;
#X obj 103 5 inlet value;
#X obj 22 10 inlet i;
#X obj 22 140 route 0 1 2 3;
#X obj 22 224 outlet;
#X obj 44 174 outlet;
#X obj 66 198 outlet;
#X obj 88 225 outlet;
#X obj 103 45 t b f;
#X obj 22 64 f;
#X connect 0 0 3 0;
#X connect 1 0 8 0;
#X connect 2 0 9 0;
#X connect 3 0 4 0;
#X connect 3 1 5 0;
#X connect 3 2 6 0;
#X connect 3 3 7 0;
#X connect 8 1 0 1;
#X connect 9 0 0 0;
#X restore 329 694 pd router4;
#X obj 329 659 r offset;
#X floatatom 439 678 10 0 0 0 - - -;
#X text 296 1003 TO DO: divide this by the amount of voices (?);
#X obj 208 782 catch~ audio;
#X text 35 18 audio input;
#X obj 236 303 snapshot~;
#X msg 76 265 stop;
#X floatatom 236 331 10 0 0 0 - - -;
#X obj 236 358 * 1;
#X floatatom 236 464 10 0 0 0 - - -;
#X obj 740 671 i;
#X text 769 671 convert to int;
#X msg 236 492 set \$1;
#X obj 236 524 s offset_rcv;
#X obj 739 571 s offset;
#X obj 236 195 osc~ 0.1;
#X obj 66 339 r offset_snd;
#X obj 136 482 s offset;
#X obj 239 149 hsl 128 15 0 10 0 0 empty empty LFO -2 -16 0 24 -262130
-33289 -261234 0 1;
#X obj 347 168 hsl 128 15 2 20 0 0 empty empty AMOUNT 56 32 0 24 -262130
-33289 -261234 0 1;
#X floatatom 365 221 5 0 0 0 - - -;
#X floatatom 264 171 10 0 0 0 - - -;
#X obj 236 259 /~ 4, f 16;
#X obj 344 188 i;
#X floatatom 346 377 10 0 0 0 - - -;
#X obj 236 403 + 0;
#X obj 76 217 loadbang;
#X msg 76 241 bang;
#X obj 134 284 metro 50;
#X connect 1 0 0 0;
#X connect 3 0 37 0;
#X connect 4 0 25 0;
#X connect 7 0 41 0;
#X connect 8 0 13 0;
#X connect 9 0 13 1;
#X connect 10 0 13 2;
#X connect 11 0 13 3;
#X connect 12 0 13 4;
#X connect 13 0 18 0;
#X connect 14 0 16 1;
#X connect 14 0 26 1;
#X connect 15 0 16 0;
#X connect 16 0 17 2;
#X connect 16 1 21 2;
#X connect 17 0 23 0;
#X connect 19 0 14 0;
#X connect 20 0 17 1;
#X connect 21 0 23 0;
#X connect 22 0 21 1;
#X connect 23 0 24 0;
#X connect 23 0 24 1;
#X connect 25 0 5 0;
#X connect 26 0 17 3;
#X connect 26 1 21 3;
#X connect 27 0 26 0;
#X connect 27 0 28 0;
#X connect 30 0 17 0;
#X connect 30 0 21 0;
#X connect 32 0 34 0;
#X connect 33 0 55 0;
#X connect 34 0 35 0;
#X connect 35 0 51 0;
#X connect 35 0 52 0;
#X connect 36 0 39 0;
#X connect 36 0 44 0;
#X connect 37 0 6 0;
#X connect 39 0 40 0;
#X connect 42 0 49 0;
#X connect 43 0 35 1;
#X connect 43 0 52 1;
#X connect 45 0 48 0;
#X connect 45 0 42 0;
#X connect 46 0 50 0;
#X connect 49 0 32 0;
#X connect 50 0 47 0;
#X connect 50 0 49 1;
#X connect 52 0 36 0;
#X connect 53 0 55 0;
#X connect 54 0 55 0;
#X connect 55 0 32 0;
