#N canvas 0 23 450 300 12;
#X obj 22 96 list prepend;
#X obj 22 140 route 0 1 2 3;
#X obj 22 224 outlet;
#X obj 44 174 outlet;
#X obj 66 198 outlet;
#X obj 88 225 outlet;
#X obj 123 63 t b f;
#X obj 22 64 f;
#X obj 22 10 inlet value;
#X obj 123 10 inlet slot;
#X connect 0 0 1 0;
#X connect 1 0 2 0;
#X connect 1 1 3 0;
#X connect 1 2 4 0;
#X connect 1 3 5 0;
#X connect 6 1 0 1;
#X connect 7 0 0 0;
#X connect 8 0 7 0;
#X connect 9 0 6 0;
