#N canvas 0 23 960 1150 12;
#X obj 202 520 phasor~ 1;
#X msg 246 158 const 0;
#X obj 202 586 *~ 44100;
#X floatatom 286 461 7 0 0 0 - - -;
#X obj 286 494 / 1;
#X floatatom 286 518 5 0 0 0 - - -;
#X obj 170 473 t b f;
#X text 286 540 length of sample;
#X floatatom 170 425 5 0 0 0 - - -;
#X text 444 452 offset in samples;
#X obj 116 40 inlet;
#X text 117 15 bang;
#X obj 33 40 inlet~;
#X text 31 18 audio;
#X obj 310 67 samplerate~;
#X obj 310 41 r pd-dsp-started;
#X obj 203 965 outlet~;
#X obj 170 341 inlet;
#X obj 170 380 clip 1 32;
#X obj 310 91 s samplerate;
#X obj 478 67 r samplerate;
#X floatatom 478 91 5 0 0 0 - - -;
#X obj 286 435 r samplerate;
#X text 170 303 the time division of the sample;
#X text 170 319 e.g. a value of 4 is 1/4 th of the sample;
#X obj 34 246 tabwrite~ \$0-sample;
#X obj 246 182 array define \$0-sample 44100;
#X obj 203 936 tabread4~ \$0-sample;
#X obj 228 619 r \$0-offset;
#X obj 228 643 line 10;
#X floatatom 228 669 10 0 0 0 - - -;
#X obj 228 830 +~ 1;
#X obj 203 907 +~, f 4;
#X obj 228 853 *~ 500;
#X obj 616 898 snapshot~;
#X msg 614 839 stop;
#X obj 614 791 loadbang;
#X msg 614 815 bang;
#X obj 672 858 metro 50;
#X floatatom 616 922 10 0 0 0 - - -;
#X text 611 764 debug;
#X obj 314 801 hsl 128 15 1 20000 0 0 empty empty empty -2 -8 0 10
-262144 -1 -1 700 1;
#X obj 228 806 osc~ 0.1;
#X floatatom 311 831 10 0 0 0 - - -;
#X obj 314 740 hsl 128 15 0 10 0 0 empty empty empty -2 -8 0 10 -262144
-1 -1 9900 1;
#X floatatom 311 760 10 0 0 0 - - -;
#X obj 228 876 clip~ 0 44100;
#X obj 450 479 inlet~ rate;
#X text 400 822 TO DO: should set this upper limit dynamically;
#X connect 0 0 2 0;
#X connect 1 0 26 0;
#X connect 2 0 32 0;
#X connect 3 0 4 0;
#X connect 4 0 2 1;
#X connect 4 0 5 0;
#X connect 6 0 4 0;
#X connect 6 1 4 1;
#X connect 6 1 0 0;
#X connect 8 0 6 0;
#X connect 10 0 25 0;
#X connect 12 0 25 0;
#X connect 14 0 19 0;
#X connect 15 0 14 0;
#X connect 17 0 18 0;
#X connect 18 0 8 0;
#X connect 20 0 21 0;
#X connect 22 0 3 0;
#X connect 27 0 16 0;
#X connect 28 0 29 0;
#X connect 29 0 30 0;
#X connect 31 0 33 0;
#X connect 32 0 27 0;
#X connect 33 0 46 0;
#X connect 34 0 39 0;
#X connect 35 0 38 0;
#X connect 36 0 38 0;
#X connect 37 0 38 0;
#X connect 38 0 34 0;
#X connect 41 0 33 1;
#X connect 41 0 43 0;
#X connect 42 0 31 0;
#X connect 44 0 45 0;
#X connect 44 0 42 0;
#X connect 46 0 32 1;
#X connect 46 0 34 0;
