#N canvas 0 23 1440 850 12;
#X obj 428 75 s bela_setDigital;
#X obj 428 28 loadbang;
#X obj 595 171 r bela_digitalIn12;
#X obj 595 232 == 0;
#X obj 595 206 tgl 15 0 empty empty empty 17 7 0 10 -262144 -1 -1 0
1;
#X obj 109 267 adc~;
#X obj 595 268 sel 1 0;
#X msg 646 314 stop;
#X obj 674 791 dac~;
#N canvas 33 26 1407 848 pitchShifter 0;
#X floatatom 38 182 0 0 0 0 - - -;
#X obj 164 716 *~;
#X obj 410 590 line~;
#X floatatom 474 224 0 0 0 0 - - -;
#X text 136 18 PITCH SHIFTER;
#X obj 410 538 pack 0 200;
#X obj 474 172 r window;
#X obj 38 286 exp;
#X floatatom 38 338 6 0 0 0 - - -;
#X obj 38 518 /;
#X obj 292 378 * 0.001;
#X obj 628 730 line~;
#X obj 628 680 pack 0 200;
#X floatatom 628 578 0 0 0 0 - - -;
#X obj 628 526 r delay;
#X obj 164 768 +~;
#X obj 38 820 cos~;
#X obj 38 874 *~;
#X obj 38 932 +~;
#X obj 212 634 wrap~;
#X obj 502 720 *~;
#X obj 502 786 +~;
#X obj 376 840 cos~;
#X obj 376 894 *~;
#X obj 984 60 loadbang;
#X obj 292 432 t b f;
#X floatatom 38 570 6 0 0 0 - - -;
#X obj 212 580 +~ 0.5;
#X obj 38 716 -~ 0.5;
#X obj 38 768 *~ 0.5;
#X obj 376 718 -~ 0.5;
#X obj 376 784 *~ 0.5;
#X obj 38 392 - 1;
#X obj 38 234 * 0.05776;
#X obj 38 444 * -1;
#X text 106 172 <-- transposition;
#X text 192 198 (halftones);
#X text 164 326 speed;
#X text 162 354 change;
#X text 562 222 <--window (msec);
#X text 108 504 tape head;
#X text 850 306 This is a classic rotating-tape-head style pitch shifter
using the vd~ variable delay object. Ther are two moving tape heads
\, each of which is loudest at the middle of its trajectory \, and
enveloped out at the moment it has to jump back (or forward) to start
another scratch. Most of the brain work is in computing how fast the
tape heads have to move to get the desired transposition.;
#X text 850 544 The "window size" is the total trajectory of the read
points in the delay line \, in milliseconds. The delay times are controlled
by a phasor~ object. The second delay time \, 180 degrees out of phase
from the first one \, is computed using the "wrap" object.;
#X text 846 724 The "window size" is the total trajectory of the read
points in the delay line \, in milliseconds. The delay times are controlled
by a phasor~ object. The second delay time \, 180 degrees out of phase
from the first one \, is computed using the "wrap" object.;
#X text 844 908 The cos~ objects compute the fadein and fadeout of
the two delay line outputs. They each traverse the positive half of
the cosine waveform (phase -0.25 to +0.25) over the time the phase
goes from one end to the other.;
#X obj 38 632 phasor~;
#X text 1378 1068 updated for Pd version 0.37-1;
#X obj 628 632 max 1.5;
#X text 634 444 delay;
#X text 628 480 (msec);
#X obj 474 278 max 1;
#X text 110 530 rotation freq;
#X obj 164 820 vd~ G09-del;
#X obj 502 844 vd~ G09-del;
#X obj 528 84 delwrite~ G09-del 5000;
#X obj 525 32 inlet~;
#X obj 38 978 outlet~;
#X msg 984 112 \; window 100 \; delay 0;
#X obj 38 122 inlet;
#X connect 0 0 33 0;
#X connect 1 0 15 0;
#X connect 2 0 1 1;
#X connect 2 0 20 1;
#X connect 3 0 50 0;
#X connect 5 0 2 0;
#X connect 6 0 3 0;
#X connect 7 0 8 0;
#X connect 8 0 32 0;
#X connect 9 0 26 0;
#X connect 10 0 25 0;
#X connect 11 0 15 1;
#X connect 11 0 21 1;
#X connect 12 0 11 0;
#X connect 13 0 47 0;
#X connect 14 0 13 0;
#X connect 15 0 52 0;
#X connect 16 0 17 0;
#X connect 17 0 18 0;
#X connect 18 0 56 0;
#X connect 19 0 20 0;
#X connect 19 0 30 0;
#X connect 20 0 21 0;
#X connect 21 0 53 0;
#X connect 22 0 23 0;
#X connect 23 0 18 1;
#X connect 24 0 57 0;
#X connect 25 0 9 0;
#X connect 25 1 9 1;
#X connect 26 0 45 0;
#X connect 27 0 19 0;
#X connect 28 0 29 0;
#X connect 29 0 16 0;
#X connect 30 0 31 0;
#X connect 31 0 22 0;
#X connect 32 0 34 0;
#X connect 33 0 7 0;
#X connect 34 0 9 0;
#X connect 45 0 1 0;
#X connect 45 0 28 0;
#X connect 45 0 27 0;
#X connect 47 0 12 0;
#X connect 50 0 10 0;
#X connect 50 0 5 0;
#X connect 52 0 17 1;
#X connect 53 0 23 1;
#X connect 55 0 54 0;
#X connect 58 0 0 0;
#X restore 325 683 pd pitchShifter;
#X floatatom 325 654 5 0 0 0 - - -;
#X obj 143 540 adc~ 3;
#X obj 144 576 snapshot~;
#X obj 80 473 loadbang;
#X obj 80 505 metro 20;
#X text 73 448 Potentiometer;
#X obj 145 613 maxlib/scale 0 0.8 -12 12;
#X obj 226 385 tabwrite~ sampler1;
#X obj 88 104 table sampler1 132300;
#X obj 588 457 tabread~ sampler1;
#X obj 88 139 table sampler2 132300;
#X obj 651 190 print in12;
#X obj 803 235 == 0;
#X obj 803 209 tgl 15 0 empty empty empty 17 7 0 10 -262144 -1 -1 0
1;
#X obj 803 271 sel 1 0;
#X obj 803 174 r bela_digitalIn13;
#X obj 859 193 print in13;
#N canvas 0 23 450 300 stimer 0;
#X obj 85 69 inlet start;
#X obj 197 70 inlet stop;
#X obj 152 126 timer;
#X obj 152 150 t b f f;
#X msg 152 174 1000;
#X obj 153 200 /;
#X obj 230 199 * 44.1;
#X obj 154 248 *~ 1;
#X obj 154 281 outlet~ signal;
#X obj 153 224 phasor~;
#X connect 0 0 2 0;
#X connect 1 0 2 1;
#X connect 2 0 3 0;
#X connect 3 0 4 0;
#X connect 3 1 5 1;
#X connect 3 2 6 0;
#X connect 4 0 5 0;
#X connect 5 0 9 0;
#X connect 6 0 7 1;
#X connect 7 0 8 0;
#X connect 9 0 7 0;
#X restore 588 365 pd stimer;
#N canvas 0 23 450 300 stimer 0;
#X obj 85 69 inlet start;
#X obj 197 70 inlet stop;
#X obj 152 126 timer;
#X obj 152 150 t b f f;
#X msg 152 174 1000;
#X obj 153 200 /;
#X obj 230 199 * 44.1;
#X obj 154 248 *~ 1;
#X obj 154 281 outlet~ signal;
#X obj 153 224 phasor~;
#X connect 0 0 2 0;
#X connect 1 0 2 1;
#X connect 2 0 3 0;
#X connect 3 0 4 0;
#X connect 3 1 5 1;
#X connect 3 2 6 0;
#X connect 4 0 5 0;
#X connect 5 0 9 0;
#X connect 6 0 7 1;
#X connect 7 0 8 0;
#X connect 9 0 7 0;
#X restore 802 365 pd stimer;
#X msg 857 317 stop;
#X obj 227 418 tabwrite~ sampler2;
#X obj 799 456 tabread~ sampler2;
#X obj 1010 234 == 0;
#X obj 1010 208 tgl 15 0 empty empty empty 17 7 0 10 -262144 -1 -1
0 1;
#X obj 1010 270 sel 1 0;
#N canvas 0 23 450 300 stimer 0;
#X obj 85 69 inlet start;
#X obj 197 70 inlet stop;
#X obj 152 126 timer;
#X obj 152 150 t b f f;
#X msg 152 174 1000;
#X obj 153 200 /;
#X obj 230 199 * 44.1;
#X obj 154 248 *~ 1;
#X obj 154 281 outlet~ signal;
#X obj 153 224 phasor~;
#X connect 0 0 2 0;
#X connect 1 0 2 1;
#X connect 2 0 3 0;
#X connect 3 0 4 0;
#X connect 3 1 5 1;
#X connect 3 2 6 0;
#X connect 4 0 5 0;
#X connect 5 0 9 0;
#X connect 6 0 7 1;
#X connect 7 0 8 0;
#X connect 9 0 7 0;
#X restore 1009 364 pd stimer;
#X msg 1064 316 stop;
#X obj 1008 455 tabread~ sampler3;
#X obj 1010 173 r bela_digitalIn14;
#X obj 1066 192 print in14;
#X obj 224 453 tabwrite~ sampler3;
#X obj 87 172 table sampler3 132300;
#X msg 428 50 in 11 \, in 12 \, in 13 \, in 14;
#X obj 87 78 table sampler0 132300;
#X obj 228 349 tabwrite~ sampler0;
#X obj 429 231 == 0;
#X obj 429 205 tgl 15 0 empty empty empty 17 7 0 10 -262144 -1 -1 0
1;
#X obj 429 267 sel 1 0;
#X msg 480 313 stop;
#N canvas 0 23 450 300 stimer 0;
#X obj 85 69 inlet start;
#X obj 197 70 inlet stop;
#X obj 152 126 timer;
#X obj 152 150 t b f f;
#X msg 152 174 1000;
#X obj 153 200 /;
#X obj 230 199 * 44.1;
#X obj 154 248 *~ 1;
#X obj 154 281 outlet~ signal;
#X obj 153 224 phasor~;
#X connect 0 0 2 0;
#X connect 1 0 2 1;
#X connect 2 0 3 0;
#X connect 3 0 4 0;
#X connect 3 1 5 1;
#X connect 3 2 6 0;
#X connect 4 0 5 0;
#X connect 5 0 9 0;
#X connect 6 0 7 1;
#X connect 7 0 8 0;
#X connect 9 0 7 0;
#X restore 422 364 pd stimer;
#X obj 429 170 r bela_digitalIn11;
#X obj 485 190 print in11;
#X obj 422 456 tabread~ sampler0;
#X text 85 43 Allocates 3 sec to each sample (44 \, 1 kHz * 3 = 132300)
;
#X text 425 6 initialise the digi pins;
#X connect 1 0 42 0;
#X connect 2 0 4 0;
#X connect 2 0 21 0;
#X connect 3 0 6 0;
#X connect 4 0 3 0;
#X connect 5 0 17 0;
#X connect 5 0 30 0;
#X connect 5 0 40 0;
#X connect 5 0 44 0;
#X connect 5 1 17 0;
#X connect 5 1 30 0;
#X connect 5 1 40 0;
#X connect 5 1 44 0;
#X connect 6 0 27 0;
#X connect 6 0 17 0;
#X connect 6 1 7 0;
#X connect 6 1 27 1;
#X connect 7 0 17 0;
#X connect 9 0 8 0;
#X connect 9 0 8 1;
#X connect 10 0 9 0;
#X connect 11 0 12 0;
#X connect 12 0 16 0;
#X connect 13 0 14 0;
#X connect 14 0 12 0;
#X connect 16 0 10 0;
#X connect 19 0 8 1;
#X connect 19 0 8 0;
#X connect 22 0 24 0;
#X connect 23 0 22 0;
#X connect 24 0 28 0;
#X connect 24 0 30 0;
#X connect 24 1 28 1;
#X connect 24 1 29 0;
#X connect 25 0 23 0;
#X connect 25 0 26 0;
#X connect 27 0 19 0;
#X connect 28 0 31 0;
#X connect 29 0 30 0;
#X connect 31 0 8 0;
#X connect 31 0 8 1;
#X connect 32 0 34 0;
#X connect 33 0 32 0;
#X connect 34 0 35 0;
#X connect 34 0 40 0;
#X connect 34 1 35 1;
#X connect 34 1 36 0;
#X connect 35 0 37 0;
#X connect 36 0 40 0;
#X connect 37 0 8 0;
#X connect 37 0 8 1;
#X connect 38 0 33 0;
#X connect 38 0 39 0;
#X connect 42 0 0 0;
#X connect 45 0 47 0;
#X connect 46 0 45 0;
#X connect 47 0 49 0;
#X connect 47 0 44 0;
#X connect 47 1 48 0;
#X connect 47 1 49 1;
#X connect 48 0 44 0;
#X connect 49 0 52 0;
#X connect 50 0 46 0;
#X connect 50 0 51 0;
#X connect 52 0 9 1;
