#N canvas 0 23 450 300 12;
#X obj 37 37 inlet;
#X text 36 14 x;
#X obj 102 37 inlet;
#X obj 168 37 inlet;
#X obj 234 37 inlet;
#X obj 300 37 inlet;
#X text 108 14 a;
#X text 176 14 b;
#X text 246 14 c;
#X text 306 14 d;
#X obj 37 145 expr ($f1-$f2)/($f3-$f2)*($f5-$f4)+$f4, f 39;
#X obj 37 201 outlet;
#X obj 102 61 t b f;
#X obj 168 61 t b f;
#X obj 234 61 t b f;
#X obj 300 61 t b f;
#X obj 37 61 t b f;
#X connect 0 0 16 0;
#X connect 2 0 12 0;
#X connect 3 0 13 0;
#X connect 4 0 14 0;
#X connect 5 0 15 0;
#X connect 10 0 11 0;
#X connect 12 0 10 0;
#X connect 12 1 10 1;
#X connect 13 0 10 0;
#X connect 13 1 10 2;
#X connect 14 0 10 0;
#X connect 14 1 10 3;
#X connect 15 0 10 0;
#X connect 15 1 10 4;
#X connect 16 0 10 0;
#X connect 16 1 10 0;
